
<svg width="1000" height="822" xmlns="http://www.w3.org/2000/svg">

  <rect width="100%" height="100%" fill="#0D1117"/>

  <rect x="20" y="20" width="960" height="782" rx="25"
  fill="#161B22" stroke="#30363D"/>

  <text x="60" y="80"
  fill="#58A6FF"
  font-size="28"
  font-weight="bold">

  📊 Dashboard de Repositórios

  </text>

  <text x="60" y="130"
  fill="#E6EDF3"
  font-size="16">

  📦 9 Repositórios

  </text>

  <text x="310" y="130"
  fill="#FFD93D"
  font-size="16">

  ⭐ 7 Stars

  </text>

  <text x="480" y="130"
  fill="#DA70D6"
  font-size="16">

  👥 348 Seguidores

  </text>

  <text x="60" y="180"
  fill="#8B949E"
  font-size="16">

  Linguagens Mais Utilizadas

  </text>

  
      <text x="60" y="220" fill="#E6EDF3" font-size="14">C#</text>
      <rect x="260" y="206" rx="10" width="450" height="16" fill="#21262D"/>
      <rect x="260" y="206" rx="10" width="0" height="16" fill="#FF6B6B">
        <animate attributeName="width" from="0" to="166.5" dur="1.2s" fill="freeze"/>
      </rect>
      <text x="730" y="220" fill="#8B949E" font-size="12">33.3%</text>
    
      <text x="60" y="260" fill="#E6EDF3" font-size="14">JavaScript</text>
      <rect x="260" y="246" rx="10" width="450" height="16" fill="#21262D"/>
      <rect x="260" y="246" rx="10" width="0" height="16" fill="#6BCB77">
        <animate attributeName="width" from="0" to="166.5" dur="1.2s" fill="freeze"/>
      </rect>
      <text x="730" y="260" fill="#8B949E" font-size="12">33.3%</text>
    
      <text x="60" y="300" fill="#E6EDF3" font-size="14">Jupyter Notebook</text>
      <rect x="260" y="286" rx="10" width="450" height="16" fill="#21262D"/>
      <rect x="260" y="286" rx="10" width="0" height="16" fill="#4D96FF">
        <animate attributeName="width" from="0" to="55.5" dur="1.2s" fill="freeze"/>
      </rect>
      <text x="730" y="300" fill="#8B949E" font-size="12">11.1%</text>
    
      <text x="60" y="340" fill="#E6EDF3" font-size="14">Python</text>
      <rect x="260" y="326" rx="10" width="450" height="16" fill="#21262D"/>
      <rect x="260" y="326" rx="10" width="0" height="16" fill="#FFD93D">
        <animate attributeName="width" from="0" to="55.5" dur="1.2s" fill="freeze"/>
      </rect>
      <text x="730" y="340" fill="#8B949E" font-size="12">11.1%</text>
    
      <text x="60" y="380" fill="#E6EDF3" font-size="14">TSQL</text>
      <rect x="260" y="366" rx="10" width="450" height="16" fill="#21262D"/>
      <rect x="260" y="366" rx="10" width="0" height="16" fill="#845EC2">
        <animate attributeName="width" from="0" to="55.5" dur="1.2s" fill="freeze"/>
      </rect>
      <text x="730" y="380" fill="#8B949E" font-size="12">11.1%</text>
    

  <line
    x1="60"
    y1="440"
    x2="940"
    y2="440"
    stroke="#30363D"
  />

  <text
    x="60"
    y="460"
    fill="#8B949E"
    font-size="18"
    font-weight="bold">

    📂 Todos os Repositórios (9)

  </text>

  
        <text x="60" y="490" fill="#58A6FF" font-size="14">📦 Gerador-de-pastas-e-Excel</text>
        <text x="410" y="490" fill="#FFD93D" font-size="14">⭐ 4</text>
        <text x="510" y="490" fill="#8B949E" font-size="12">Python</text>
      
        <text x="60" y="518" fill="#58A6FF" font-size="14">📦 dio-lab-open-source</text>
        <text x="410" y="518" fill="#FFD93D" font-size="14">⭐ 3</text>
        <text x="510" y="518" fill="#8B949E" font-size="12">Jupyter Notebook</text>
      
        <text x="60" y="546" fill="#58A6FF" font-size="14">📦 trilha-net-fundamentos-desafio</text>
        <text x="410" y="546" fill="#FFD93D" font-size="14">⭐ 0</text>
        <text x="510" y="546" fill="#8B949E" font-size="12">C#</text>
      
        <text x="60" y="574" fill="#58A6FF" font-size="14">📦 github-readme-stats</text>
        <text x="410" y="574" fill="#FFD93D" font-size="14">⭐ 0</text>
        <text x="510" y="574" fill="#8B949E" font-size="12">JavaScript</text>
      
        <text x="60" y="602" fill="#58A6FF" font-size="14">📦 trilha-net-explorando-desafio</text>
        <text x="410" y="602" fill="#FFD93D" font-size="14">⭐ 0</text>
        <text x="510" y="602" fill="#8B949E" font-size="12">C#</text>
      
        <text x="60" y="630" fill="#58A6FF" font-size="14">📦 trilha-net-poo-desafio</text>
        <text x="410" y="630" fill="#FFD93D" font-size="14">⭐ 0</text>
        <text x="510" y="630" fill="#8B949E" font-size="12">C#</text>
      
        <text x="60" y="658" fill="#58A6FF" font-size="14">📦 trilha-net-banco-de-dados-desafio</text>
        <text x="410" y="658" fill="#FFD93D" font-size="14">⭐ 0</text>
        <text x="510" y="658" fill="#8B949E" font-size="12">TSQL</text>
      
        <text x="60" y="686" fill="#58A6FF" font-size="14">📦 GitHub-Profile-Auto-Updater</text>
        <text x="410" y="686" fill="#FFD93D" font-size="14">⭐ 0</text>
        <text x="510" y="686" fill="#8B949E" font-size="12">JavaScript</text>
      
        <text x="60" y="714" fill="#58A6FF" font-size="14">📦 RafaelaSommer</text>
        <text x="410" y="714" fill="#FFD93D" font-size="14">⭐ 0</text>
        <text x="510" y="714" fill="#8B949E" font-size="12">JavaScript</text>
      

</svg>
